<?xml version="1.0" encoding="UTF-8"?>
<svg version="1.1" xmlns="http://www.w3.org/2000/svg" width="82" height="82">
<path d="M0 0 C27.06 0 54.12 0 82 0 C82 27.06 82 54.12 82 82 C54.94 82 27.88 82 0 82 C0 54.94 0 27.88 0 0 Z " fill="#63B6E4" transform="translate(0,0)"/>
<path d="M0 0 C9.62603444 1.48352194 16.27062941 8.56730302 22 16 C23.59655888 18.3158876 24.79783387 20.43886347 26 23 C25.67 23.66 25.34 24.32 25 25 C22.69 23.02 20.38 21.04 18 19 C20.06312314 22.66415876 22.35872176 25.70548128 25.1875 28.8125 C26.26064453 29.99779297 26.26064453 29.99779297 27.35546875 31.20703125 C27.89816406 31.79871094 28.44085938 32.39039063 29 33 C28.21625 33.7425 27.4325 34.485 26.625 35.25 C24.38733567 37.59421977 23.30629174 39.14324985 22 42 C22.82242188 42.08636719 23.64484375 42.17273438 24.4921875 42.26171875 C32.22951005 43.23558498 38.28385479 45.02792315 45 49 C45 51.64 45 54.28 45 57 C17.94 57 -9.12 57 -37 57 C-37 39.18 -37 21.36 -37 3 C-35.02 3.99 -35.02 3.99 -33 5 C-29.38774145 5.15288102 -25.81248988 5.22203921 -22.19921875 5.12695312 C-19.94154414 5.16846903 -18.14029025 5.2697202 -16 6 C-14.08493308 8.20210026 -13.22247919 10.2916018 -12 13 C-9.80359527 15.1349293 -9.80359527 15.1349293 -7 16 C-3.52513528 15.74176007 -3.52513528 15.74176007 0 15 C1.99961564 14.96079185 4.00049364 14.95556653 6 15 C7.32 15 8.64 15 10 15 C12.25 16.5 12.25 16.5 14 18 C14.66 17.67 15.32 17.34 16 17 C15.40832031 16.62488281 14.81664062 16.24976562 14.20703125 15.86328125 C2.04274282 7.98526737 2.04274282 7.98526737 0 0 Z " fill="#FEFEFE" transform="translate(37,25)"/>
<path d="M0 0 C27.06 0 54.12 0 82 0 C82 23.1 82 46.2 82 70 C81.34 69.01 80.68 68.02 80 67 C79.525625 66.36964844 79.05125 65.73929687 78.5625 65.08984375 C75.07120411 60.28058367 73.45690645 56.50450161 72.54296875 50.66796875 C71.06884507 43.42461283 67.6207819 36.81782682 63.6875 30.625 C61.39265513 26.91885518 59.96528777 24.44926261 61 20 C62.9375 17.375 62.9375 17.375 65 15 C65.64400687 12.9153314 65.64400687 12.9153314 66 11 C64.31229485 11.14343968 62.62484514 11.28988569 60.9375 11.4375 C59.93074219 11.52386719 58.92398438 11.61023437 57.88671875 11.69921875 C54.8403853 11.9711877 54.8403853 11.9711877 51.25 12.75 C47.11712134 13.06791374 44.71989863 11.72217529 41 10 C38.24934768 9.83142517 38.24934768 9.83142517 36 10 C35.505 9.505 35.505 9.505 35 9 C26.75204104 8.24113801 19.19559345 8.61244302 12 13 C9.96474974 14.87119986 8.63147925 16.71592905 7 19 C2.42553191 23.78723404 2.42553191 23.78723404 0 25 C0 16.75 0 8.5 0 0 Z " fill="#FDFDFD" transform="translate(0,0)"/>
<path d="M0 0 C0 0.66 0 1.32 0 2 C-1.15757813 2.17015625 -2.31515625 2.3403125 -3.5078125 2.515625 C-5.04699798 2.75964221 -6.58605394 3.00447736 -8.125 3.25 C-8.88554687 3.35957031 -9.64609375 3.46914062 -10.4296875 3.58203125 C-16.30976128 4.54514678 -20.63937668 6.29900774 -24.6796875 10.921875 C-25.07414062 11.52515625 -25.46859375 12.1284375 -25.875 12.75 C-26.926875 14.35875 -26.926875 14.35875 -28 16 C-25.03 15.34 -22.06 14.68 -19 14 C-19 14.99 -19 15.98 -19 17 C-20.65 17.66 -22.3 18.32 -24 19 C-18.72 19.66 -13.44 20.32 -8 21 C-8.495 18.525 -8.495 18.525 -9 16 C-6 17 -6 17 -4.8671875 18.7421875 C-4.53976563 19.44601563 -4.21234375 20.14984375 -3.875 20.875 C-3.54242187 21.57367187 -3.20984375 22.27234375 -2.8671875 22.9921875 C-2 25 -2 25 -1 28 C0.65 28.33 2.3 28.66 4 29 C3.505 28.0925 3.01 27.185 2.5 26.25 C1 23 1 23 1 19 C1.99 19.33 2.98 19.66 4 20 C4.350625 20.886875 4.70125 21.77375 5.0625 22.6875 C7.55236281 26.94436222 10.44627207 28.32598644 14.72265625 30.60546875 C17 32 17 32 19 35 C15 35 15 35 13.3125 33.4375 C8.85889952 30.66904565 3.19087026 32.73760486 -1.6875 33.8125 C-6.09006331 34.0617017 -7.70427654 32.84630662 -11 30 C-14 25.8 -14 25.8 -14 23 C-15.18078125 23.03480469 -16.3615625 23.06960937 -17.578125 23.10546875 C-19.13540242 23.13361232 -20.69269525 23.16091187 -22.25 23.1875 C-23.02730469 23.21263672 -23.80460937 23.23777344 -24.60546875 23.26367188 C-30.42997175 23.33834499 -30.42997175 23.33834499 -33.546875 21.48828125 C-34.02640625 20.99714844 -34.5059375 20.50601562 -35 20 C-34.52288287 15.70594581 -32.02590732 13.89142255 -29 11 C-28.10237551 9.81385335 -27.20662836 8.62628429 -26.3125 7.4375 C-19.4014043 -0.59621023 -9.90051538 -0.55864977 0 0 Z " fill="#0F1112" transform="translate(35,8)"/>
<path d="M0 0 C5.59075908 0.76237624 5.59075908 0.76237624 7.9375 2.125 C11.07781286 3.45725394 13.65237677 2.53136877 17 2 C20.66832749 1.90606709 24.33122051 1.94029111 28 2 C27.1953125 6.7578125 27.1953125 6.7578125 25.4375 8.9375 C23.40028285 11.86046374 23.62129593 13.45994018 24 17 C25.19728615 19.75328376 26.74039027 22.25903662 28.3125 24.8125 C32.26227215 31.52328535 35.60920123 37.6230538 36.3125 45.5 C37.15836577 49.80622576 39.10983856 52.25845904 41.6328125 55.77734375 C43.56389021 58.91672437 43.84491547 61.35551343 44 65 C40.9164937 64.32261647 38.20055451 63.26497718 35.3125 62 C30.46890917 60.01362397 26.20931096 59.33608458 21 59 C21 55 21 55 22.3125 53.296875 C23.1478125 52.53117187 23.1478125 52.53117187 24 51.75 C24.556875 51.22921875 25.11375 50.7084375 25.6875 50.171875 C26.3371875 49.59179688 26.3371875 49.59179688 27 49 C26.36191406 48.32453125 25.72382812 47.6490625 25.06640625 46.953125 C24.24011719 46.06109375 23.41382812 45.1690625 22.5625 44.25 C21.73878906 43.36828125 20.91507813 42.4865625 20.06640625 41.578125 C18.16931982 39.21124968 17.37897068 37.9490809 17 35 C20.78336048 36.54104843 22.97944825 38.85809607 25.6875 41.875 C26.86892578 43.17050781 26.86892578 43.17050781 28.07421875 44.4921875 C29.85623213 46.81278098 30.60896815 48.15010688 31 51 C29.35 52.32 27.7 53.64 26 55 C26.67546875 55.19335938 27.3509375 55.38671875 28.046875 55.5859375 C29.38492188 55.97652344 29.38492188 55.97652344 30.75 56.375 C31.63171875 56.63023438 32.5134375 56.88546875 33.421875 57.1484375 C35.76080572 57.9209934 37.83442562 58.83625676 40 60 C39.21448343 58.68381002 38.4213763 57.37214772 37.625 56.0625 C37.18414062 55.33160156 36.74328125 54.60070313 36.2890625 53.84765625 C35.1226016 51.86227728 35.1226016 51.86227728 33 51 C32.72722359 49.15421295 32.53466783 47.29648978 32.375 45.4375 C31.06416811 35.73519508 26.39523083 27.09284624 21 19 C20.69921875 16.66015625 20.69921875 16.66015625 20.6875 14.0625 C20.67074219 13.20785156 20.65398438 12.35320313 20.63671875 11.47265625 C21.06495831 8.5578644 22.07709539 7.18673321 24 5 C22.989375 5.144375 21.97875 5.28875 20.9375 5.4375 C18.9884375 5.7159375 18.9884375 5.7159375 17 6 C15.906875 6.28875 14.81375 6.5775 13.6875 6.875 C8.30205448 7.05755748 4.57198058 4.65855611 0 2 C0 1.34 0 0.68 0 0 Z " fill="#0C0F11" transform="translate(38,9)"/>
<path d="M0 0 C1.98 0 3.96 0 6 0 C5.505 0.61875 5.01 1.2375 4.5 1.875 C2.30191747 6.45433861 1.94340599 10.01419702 3 15 C4.80782033 18.72862944 6.85552927 22.21403884 9.01953125 25.7421875 C13.33334091 32.83827677 14.45673852 38.74487414 14 47 C14.62390625 47.2784375 15.2478125 47.556875 15.890625 47.84375 C18.69109238 49.37882101 19.59069356 51.18138712 21 54 C21 54.66 21 55.32 21 56 C20.41992188 55.79503906 19.83984375 55.59007812 19.2421875 55.37890625 C14.8378016 53.85990187 10.64322223 52.5952849 6 52 C6.825 51.360625 7.65 50.72125 8.5 50.0625 C11.39001746 46.52222861 11.75216128 45.06894839 11.48046875 40.6484375 C10.04164794 32.71737647 6.67013312 25.75783926 2.1875 19.125 C-0.0362732 15.79176262 -0.97499785 14.15501335 -1.625 10.125 C-0.96646941 6.83234703 0.03282773 4.70486188 2 2 C1.34 1.34 0.68 0.68 0 0 Z " fill="#0594D8" transform="translate(57,13)"/>
<path d="M0 0 C9.62603444 1.48352194 16.27062941 8.56730302 22 16 C23.59655888 18.3158876 24.79783387 20.43886347 26 23 C25.67 23.66 25.34 24.32 25 25 C24.2575 24.21625 23.515 23.4325 22.75 22.625 C20.37163765 20.35474503 18.85293279 19.38045135 16 18 C15.1646875 17.13375 15.1646875 17.13375 14.3125 16.25 C12.10688032 14.10399166 10.04191585 12.73484928 7.4375 11.125 C3.53556271 8.59644195 1.5400806 6.51756977 0 2 C0 1.34 0 0.68 0 0 Z " fill="#D9D9DC" transform="translate(37,25)"/>
<path d="M0 0 C0 0.66 0 1.32 0 2 C-1.15757813 2.17015625 -2.31515625 2.3403125 -3.5078125 2.515625 C-5.04699798 2.75964221 -6.58605394 3.00447736 -8.125 3.25 C-8.88554687 3.35957031 -9.64609375 3.46914062 -10.4296875 3.58203125 C-16.23716764 4.53325644 -20.67066957 6.20827147 -24.57421875 10.88671875 C-24.94160156 11.48097656 -25.30898438 12.07523438 -25.6875 12.6875 C-27.68648649 15.8954955 -27.68648649 15.8954955 -31 17 C-29.45681124 10.67292609 -26.39400611 6.09286815 -20.83984375 2.66796875 C-13.99450504 -0.48200012 -7.42055173 -0.41871452 0 0 Z " fill="#0B0E0F" transform="translate(35,8)"/>
<path d="M0 0 C0.99 0.33 1.98 0.66 3 1 C3.350625 1.886875 3.70125 2.77375 4.0625 3.6875 C6.55236281 7.94436222 9.44627207 9.32598644 13.72265625 11.60546875 C16 13 16 13 18 16 C14 16 14 16 12.3125 14.4375 C8.65545335 12.16420073 5.09889266 13.27305963 1 14 C1.99 13.67 2.98 13.34 4 13 C3.71125 12.39671875 3.4225 11.7934375 3.125 11.171875 C2.75375 10.37265625 2.3825 9.5734375 2 8.75 C1.62875 7.96109375 1.2575 7.1721875 0.875 6.359375 C0 4 0 4 0 0 Z " fill="#121314" transform="translate(36,27)"/>
<path d="M0 0 C3.67591895 1.0210886 4.9339798 1.91435217 7.3125 5 C9 8 9 8 9 10 C8.41992188 9.79503906 7.83984375 9.59007813 7.2421875 9.37890625 C2.8378016 7.85990187 -1.35677777 6.5952849 -6 6 C-4 4 -2 2 0 0 Z " fill="#4CB1E7" transform="translate(69,59)"/>
<path d="M0 0 C2.97 0 5.94 0 9 0 C8.75 2.375 8.75 2.375 8 5 C5.9375 6.3125 5.9375 6.3125 4 7 C4 4 4 4 5 3 C2.03 2.505 2.03 2.505 -1 2 C-0.67 1.34 -0.34 0.68 0 0 Z " fill="#040606" transform="translate(57,11)"/>
<path d="M0 0 C1.98 0 3.96 0 6 0 C5.73445313 0.50789062 5.46890625 1.01578125 5.1953125 1.5390625 C3.10022511 5.62218902 1.32380814 9.5873062 0 14 C-0.33 14 -0.66 14 -1 14 C-1.2954439 8.97745369 -0.98514628 6.10457614 2 2 C1.34 1.34 0.68 0.68 0 0 Z " fill="#199CDC" transform="translate(57,13)"/>
<path d="M0 0 C2.3125 -0.25 2.3125 -0.25 5 0 C6.8125 1.8125 6.8125 1.8125 8 4 C8 4.99 8 5.98 8 7 C4.59679258 5.98823563 3.24274669 5.35156418 1.1875 2.375 C0.795625 1.59125 0.40375 0.8075 0 0 Z " fill="#0096DA" transform="translate(24,32)"/>
<path d="M0 0 C0.33 1.65 0.66 3.3 1 5 C-2.3 4.67 -5.6 4.34 -9 4 C-5.73092573 0.73092573 -4.54139841 0 0 0 Z " fill="#D8DADD" transform="translate(26,24)"/>
</svg>
